<?xml version="1.0" encoding="UTF-8" standalone="no"?>
<!-- Created with Inkscape (http://www.inkscape.org/) -->

<svg
   xmlns:dc="http://purl.org/dc/elements/1.1/"
   xmlns:cc="http://creativecommons.org/ns#"
   xmlns:rdf="http://www.w3.org/1999/02/22-rdf-syntax-ns#"
   xmlns:svg="http://www.w3.org/2000/svg"
   xmlns="http://www.w3.org/2000/svg"
   xmlns:sodipodi="http://sodipodi.sourceforge.net/DTD/sodipodi-0.dtd"
   xmlns:inkscape="http://www.inkscape.org/namespaces/inkscape"
   version="1.1"
   width="1643.7812"
   height="158"
   id="svg4040"
   inkscape:version="0.48.4 r9939"
   sodipodi:docname="ev3devLogoOneLineTextOnlyWhite.svg"
   inkscape:export-filename="/home/david/work/ev3dev2/ev3dev.github.io/images/ev3devLogo.png"
   inkscape:export-xdpi="10.95"
   inkscape:export-ydpi="10.95">
  <sodipodi:namedview
     pagecolor="#000000"
     bordercolor="#666666"
     borderopacity="1"
     objecttolerance="10"
     gridtolerance="10"
     guidetolerance="10"
     inkscape:pageopacity="0"
     inkscape:pageshadow="2"
     inkscape:window-width="1920"
     inkscape:window-height="1025"
     id="namedview17"
     showgrid="false"
     inkscape:snap-bbox="true"
     inkscape:zoom="0.73152338"
     inkscape:cx="705.28367"
     inkscape:cy="130.60426"
     inkscape:window-x="0"
     inkscape:window-y="30"
     inkscape:window-maximized="1"
     inkscape:current-layer="svg4040"
     fit-margin-top="0"
     fit-margin-left="0"
     fit-margin-right="0"
     fit-margin-bottom="0" />
  <defs
     id="defs4042" />
  <metadata
     id="metadata4045">
    <rdf:RDF>
      <cc:Work
         rdf:about="">
        <dc:format>image/svg+xml</dc:format>
        <dc:type
           rdf:resource="http://purl.org/dc/dcmitype/StillImage" />
        <dc:title></dc:title>
      </cc:Work>
    </rdf:RDF>
  </metadata>
  <path
     inkscape:connector-curvature="0"
     style="font-size:64px;font-style:normal;font-variant:normal;font-weight:normal;font-stretch:normal;text-align:start;line-height:125%;letter-spacing:0px;word-spacing:0px;writing-mode:lr-tb;text-anchor:start;fill:#ffffff;fill-opacity:1;stroke:#000000;stroke-width:0;stroke-miterlimit:3.63636351;stroke-opacity:1;stroke-dasharray:none;font-family:SF Alien Encounters Solid;-inkscape-font-specification:SF Alien Encounters Solid"
     id="path3010-5-5"
     d="m 286.12418,157.94554 -42.84886,0 -57.50768,-157.86416 38.33846,0 40.59365,115.69183 40.59366,-115.69183 38.33849,0 -57.50772,157.86416"
     inkscape:export-filename="/home/rhempel/projects/movies/ev3dev/shared/inkscape/ev3devVideoWatermark.png"
     inkscape:export-xdpi="8.1447964"
     inkscape:export-ydpi="8.1447964" />
  <path
     inkscape:connector-curvature="0"
     style="font-size:64px;font-style:normal;font-variant:normal;font-weight:normal;font-stretch:normal;text-align:start;line-height:125%;letter-spacing:0px;word-spacing:0px;writing-mode:lr-tb;text-anchor:start;fill:#ffffff;fill-opacity:1;stroke:#000000;stroke-width:0;stroke-miterlimit:3.63636351;stroke-opacity:1;stroke-dasharray:none;font-family:SF Alien Encounters Solid;-inkscape-font-specification:SF Alien Encounters Solid"
     id="path3008-71-88-4-4-0"
     d="m 22.589688,157.94554 c -6.3146,0 -11.65189,-2.18014 -16.01194,-6.54008 -4.360084,-4.35994 -6.54009,-9.69737 -6.54009,-16.01194 l 0,-112.76006 c 0,-6.31456 2.180006,-11.65163 6.54009,-16.01192 4.36005,-4.35994 9.69734,-6.54009 16.01194,-6.54009 l 135.314032,0 0,31.57317 -124.03801,0 0,31.57247 124.03801,0 0,31.57281 -124.03801,0 0,31.57282 124.03801,0 0,31.57282 -135.314032,0"
     inkscape:export-filename="/home/rhempel/projects/movies/ev3dev/shared/inkscape/ev3devVideoWatermark.png"
     inkscape:export-xdpi="8.1447964"
     inkscape:export-ydpi="8.1447964" />
  <path
     inkscape:connector-curvature="0"
     style="font-size:64px;font-style:normal;font-variant:normal;font-weight:normal;font-stretch:normal;text-align:start;line-height:125%;letter-spacing:0px;word-spacing:0px;writing-mode:lr-tb;text-anchor:start;fill:#ffffff;fill-opacity:1;stroke:#000000;stroke-width:0;stroke-miterlimit:3.63636351;stroke-opacity:1;stroke-dasharray:none;font-family:SF Alien Encounters Solid;-inkscape-font-specification:SF Alien Encounters Solid"
     id="path3022-8-2-3-8-3"
     d="m 1424.1784,31.65392 -90.2081,0 0,31.57282 90.2081,0 0,-31.57282 m 0,126.29162 0,-63.14563 -90.2081,0 0,63.14563 -33.8281,0 0,-157.86426 135.3122,0 c 6.3145,0 11.6518,2.18015 16.012,6.54008 4.3599,4.35976 6.5399,9.69719 6.54,16.01176 l 0,33.82801 c 0,6.31457 -2.1801,11.652 -6.54,16.01193 -4.3602,4.35994 -9.6975,6.54009 -16.012,6.54009 6.3145,0 11.6518,2.18014 16.012,6.54008 4.3599,4.35994 6.5399,9.69772 6.54,16.01229 l 0,56.38002 -33.828,0"
     inkscape:export-filename="/home/rhempel/projects/movies/ev3dev/shared/inkscape/ev3devVideoWatermark.png"
     inkscape:export-xdpi="8.1447964"
     inkscape:export-ydpi="8.1447964" />
  <path
     inkscape:connector-curvature="0"
     style="font-size:64px;font-style:normal;font-variant:normal;font-weight:normal;font-stretch:normal;text-align:start;line-height:125%;letter-spacing:0px;word-spacing:0px;writing-mode:lr-tb;text-anchor:start;fill:#ffffff;fill-opacity:1;stroke:#000000;stroke-width:0;stroke-miterlimit:3.63636351;stroke-opacity:1;stroke-dasharray:none;font-family:SF Alien Encounters Solid;-inkscape-font-specification:SF Alien Encounters Solid"
     id="path3024-9-0-9-3-1"
     d="m 1508.4234,157.94554 c -6.3146,0 -11.6519,-2.18014 -16.0119,-6.54008 -4.3601,-4.35994 -6.5401,-9.69737 -6.5401,-16.01193 l 0,-112.76007 c 0,-6.31456 2.18,-11.65163 6.5401,-16.01175 4.36,-4.35994 9.6973,-6.54008 16.0119,-6.54008 l 135.3122,0 0,31.57264 -124.0362,0 0,94.71846 90.2082,0 0,-31.57282 -53.5611,0 0,-31.57282 87.3891,0 0,94.71845 -135.3122,0"
     inkscape:export-filename="/home/rhempel/projects/movies/ev3dev/shared/inkscape/ev3devVideoWatermark.png"
     inkscape:export-xdpi="8.1447964"
     inkscape:export-ydpi="8.1447964" />
  <path
     inkscape:connector-curvature="0"
     style="font-size:64px;font-style:normal;font-variant:normal;font-weight:normal;font-stretch:normal;text-align:start;line-height:125%;letter-spacing:0px;word-spacing:0px;writing-mode:lr-tb;text-anchor:start;fill:#ffffff;fill-opacity:1;stroke:#000000;stroke-width:0;stroke-miterlimit:3.63636351;stroke-opacity:1;stroke-dasharray:none;font-family:SF Alien Encounters Solid;-inkscape-font-specification:SF Alien Encounters Solid"
     id="path3008-71-88-4-4-7-7"
     d="m 506.80987,157.94554 c 6.3146,0 11.6519,-2.18014 16.01195,-6.54008 4.36008,-4.35994 6.54009,-9.69737 6.54009,-16.01194 l 0,-112.76006 c 0,-6.31456 -2.18001,-11.65163 -6.54009,-16.01192 -4.36005,-4.35994 -9.69735,-6.54009 -16.01195,-6.54009 l -135.31398,0 0,31.57317 124.03796,0 0,31.57247 -124.03796,0 0,31.57281 124.03796,0 0,31.57282 -124.03796,0 0,31.57282 135.31398,0"
     inkscape:export-filename="/home/rhempel/projects/movies/ev3dev/shared/inkscape/ev3devVideoWatermark.png"
     inkscape:export-xdpi="8.1447964"
     inkscape:export-ydpi="8.1447964" />
  <path
     inkscape:connector-curvature="0"
     style="font-size:64px;font-style:normal;font-variant:normal;font-weight:normal;font-stretch:normal;text-align:start;line-height:125%;letter-spacing:0px;word-spacing:0px;writing-mode:lr-tb;text-anchor:start;fill:#ffffff;fill-opacity:1;stroke:#000000;stroke-width:0;stroke-miterlimit:3.63636351;stroke-opacity:1;stroke-dasharray:none;font-family:SF Alien Encounters Solid;-inkscape-font-specification:SF Alien Encounters Solid"
     id="path3008-71-88-4-4-1-4"
     d="m 765.50611,157.94554 c -6.31461,0 -11.65189,-2.18014 -16.01194,-6.54015 -4.36008,-4.35993 -6.54009,-9.69733 -6.54009,-16.0119 l 0,-112.76006 c 0,-6.31456 2.18001,-11.65163 6.54009,-16.01193 4.36005,-4.35994 9.69733,-6.54008 16.01194,-6.54008 l 135.31399,0 0,31.57317 -124.03798,0 0,31.57247 124.03798,0 0,31.57282 -124.03798,0 0,31.57281 124.03798,0 0,31.57285 -135.31399,0"
     inkscape:export-filename="/home/rhempel/projects/movies/ev3dev/shared/inkscape/ev3devVideoWatermark.png"
     inkscape:export-xdpi="8.1447964"
     inkscape:export-ydpi="8.1447964" />
  <g
     id="g3000"
     transform="translate(-71.800659,-456.25721)"
     style="fill:#ffffff">
    <path
       inkscape:export-ydpi="8.1447964"
       inkscape:export-xdpi="8.1447964"
       inkscape:export-filename="/home/rhempel/projects/movies/ev3dev/shared/inkscape/ev3devVideoWatermark.png"
       d="m 1158.1287,597.29762 a 16.6849,16.684886 0 0 1 -33.3698,0 16.6849,16.684886 0 1 1 33.3698,0 z"
       id="path3948-1-5-9-3-4"
       style="fill:#ffffff;fill-opacity:1;stroke:#000000;stroke-width:0;stroke-linecap:butt;stroke-linejoin:miter;stroke-miterlimit:3.63636351;stroke-opacity:1;stroke-dasharray:none"
       inkscape:connector-curvature="0" />
    <path
       inkscape:export-ydpi="8.1447964"
       inkscape:export-xdpi="8.1447964"
       inkscape:export-filename="/home/rhempel/projects/movies/ev3dev/shared/inkscape/ev3devVideoWatermark.png"
       d="m 1100.8412,614.20275 -42.8488,0 -57.5077,-157.86416 38.3385,0 40.5936,115.69183 40.5937,-115.69183 38.3385,0 -57.5078,157.86416"
       id="path3010-5-9-4"
       style="font-size:64px;font-style:normal;font-variant:normal;font-weight:normal;font-stretch:normal;text-align:start;line-height:125%;letter-spacing:0px;word-spacing:0px;writing-mode:lr-tb;text-anchor:start;fill:#ffffff;fill-opacity:1;stroke:#000000;stroke-width:0;stroke-miterlimit:3.63636351;stroke-opacity:1;stroke-dasharray:none;font-family:SF Alien Encounters Solid;-inkscape-font-specification:SF Alien Encounters Solid"
       inkscape:connector-curvature="0" />
  </g>
  <path
     inkscape:connector-curvature="0"
     style="font-size:64px;font-style:normal;font-variant:normal;font-weight:normal;font-stretch:normal;text-align:start;line-height:125%;letter-spacing:0px;word-spacing:0px;writing-mode:lr-tb;text-anchor:start;fill:#ffffff;fill-opacity:1;stroke:#000000;stroke-width:0;stroke-miterlimit:3.63636351;stroke-opacity:1;stroke-dasharray:none;font-family:SF Alien Encounters Solid;-inkscape-font-specification:SF Alien Encounters Solid"
     id="path3082-3"
     d="m 648.05065,157.94554 c 13.40732,0 37.92011,-3.43322 50.65398,-15.74658 11.92615,-11.53254 16.40748,-30.27926 16.40748,-47.02024 l 0,-16.18745 0,-16.18702 c 0,-16.741 -4.48133,-35.4874 -16.40748,-47.01989 C 685.97076,3.47092 661.45797,0.03741 648.05065,0.03741 l -90.84685,0 0,78.95386 0,78.95427 90.84685,0 z m 0,-31.60347 -56.9307,0 0,-47.35076 0,-47.35007 56.9307,0 c 8.92856,3.5e-4 19.47449,1.43417 25.65734,7.48797 6.18285,6.05346 7.5981,15.62714 7.5981,24.00521 l 0,15.85689 0,15.85688 c 0,8.37842 -1.41525,17.9521 -7.5981,24.00591 -6.18285,6.0531 -16.72878,7.48727 -25.65734,7.48797 z"
     inkscape:export-filename="/home/rhempel/projects/movies/ev3dev/shared/inkscape/ev3devVideoWatermark.png"
     inkscape:export-xdpi="8.1447964"
     inkscape:export-ydpi="8.1447964" />
  <path
     inkscape:connector-curvature="0"
     style="font-size:64px;font-style:normal;font-variant:normal;font-weight:normal;font-stretch:normal;text-align:start;line-height:125%;letter-spacing:0px;word-spacing:0px;writing-mode:lr-tb;text-anchor:start;fill:#ffffff;fill-opacity:1;stroke:#000000;stroke-width:0;stroke-miterlimit:3.63636351;stroke-opacity:1;stroke-dasharray:none;font-family:SF Alien Encounters Solid;-inkscape-font-specification:SF Alien Encounters Solid"
     id="path3020-1-8-5-8-7"
     d="m 1238.4494,31.65462 -90.2082,0 0,94.71846 90.2082,0 0,-94.71846 m 33.828,103.73927 c -10e-5,6.3142 -2.1801,11.65163 -6.5401,16.01157 -4.3601,4.36029 -9.6975,6.54008 -16.0119,6.54008 l -112.7602,0 c -6.3146,0 -11.6519,-2.17979 -16.0119,-6.54008 -4.3601,-4.35994 -6.5401,-9.69737 -6.5401,-16.01157 l 0,-112.76007 c 0,-6.31457 2.18,-11.65199 6.5401,-16.01175 4.36,-4.35994 9.6973,-6.54008 16.0119,-6.54008 l 112.7602,0 c 6.3144,0 11.6518,2.18014 16.0119,6.54008 4.36,4.35976 6.54,9.69718 6.5401,16.01175 l 0,112.76007"
     inkscape:export-filename="/home/rhempel/projects/movies/ev3dev/shared/inkscape/ev3devVideoWatermark.png"
     inkscape:export-xdpi="8.1447964"
     inkscape:export-ydpi="8.1447964" />
</svg>
